<svg width="132" height="148" viewBox="0 0 132 148" fill="none" xmlns="http://www.w3.org/2000/svg">
<path d="M116.573 21.1429C114.849 9.35043 90.2338 0 60.1071 0C29.9805 0 5.36486 9.35043 3.64178 21.1429H3.53571V22.4643V52.8571V54.1786V55.5V84.5714V85.8929V87.2143V118.929H3.64178C5.36486 130.718 29.9829 140.071 60.1071 140.071C90.2314 140.071 114.849 130.718 116.573 118.929H116.679V87.2143V85.8929V84.5714V55.5V54.1786V52.8571V22.4643V21.1429H116.573Z" fill="#545E73"/>
<path d="M60.1071 108.357C28.8632 108.357 3.53571 98.2984 3.53571 85.8929V118.929H3.64178C5.36486 130.718 29.9829 140.071 60.1071 140.071C90.2314 140.071 114.849 130.718 116.573 118.929H116.679V85.8929C116.679 98.2984 91.3511 108.357 60.1071 108.357Z" fill="#38454F"/>
<path d="M3.53571 84.5714V85.8929C3.53571 85.4489 3.57814 85.0102 3.64178 84.5714H3.53571Z" fill="#38454F"/>
<path d="M116.573 84.5714C116.636 85.0102 116.679 85.4489 116.679 85.8929V84.5714H116.573Z" fill="#38454F"/>
<path d="M60.1071 76.6429C28.8632 76.6429 3.53571 66.5842 3.53571 54.1786V87.2143H3.64178C5.36486 99.0041 29.9829 108.357 60.1071 108.357C90.2314 108.357 114.849 99.0041 116.573 87.2143H116.679V54.1786C116.679 66.5842 91.3511 76.6429 60.1071 76.6429Z" fill="#556080"/>
<path d="M3.53571 52.8571V54.1786C3.53571 53.7346 3.57814 53.2959 3.64178 52.8571H3.53571Z" fill="#556080"/>
<path d="M116.573 52.8571C116.636 53.2959 116.679 53.7346 116.679 54.1786V52.8571H116.573Z" fill="#556080"/>
<path d="M60.1071 44.9286C91.3507 44.9286 116.679 34.871 116.679 22.4643C116.679 10.0576 91.3507 0 60.1071 0C28.8636 0 3.53571 10.0576 3.53571 22.4643C3.53571 34.871 28.8636 44.9286 60.1071 44.9286Z" fill="#91BAE1"/>
<path d="M60.1071 44.9286C28.8632 44.9286 3.53571 34.8698 3.53571 22.4643V55.5H3.64178C5.36486 67.2898 29.9829 76.6428 60.1071 76.6428C90.2314 76.6428 114.849 67.2898 116.573 55.5H116.679V22.4643C116.679 34.8698 91.3511 44.9286 60.1071 44.9286Z" fill="#8697CB"/>
<path d="M3.53571 21.1429V22.4643C3.53571 22.0203 3.57814 21.5816 3.64178 21.1429H3.53571Z" fill="#8697CB"/>
<path d="M116.573 21.1429C116.636 21.5816 116.679 22.0203 116.679 22.4643V21.1429H116.573Z" fill="#8697CB"/>
<path d="M100.179 148C115.8 148 128.464 133.801 128.464 116.286C128.464 98.7704 115.8 84.5714 100.179 84.5714C84.5568 84.5714 71.8929 98.7704 71.8929 116.286C71.8929 133.801 84.5568 148 100.179 148Z" fill="#26B999"/>
<path d="M115.667 100.902C114.595 100.066 113.129 100.362 112.386 101.562L99.1956 122.811L89.8873 114.243C88.8831 113.315 87.3958 113.482 86.5708 114.61C85.7434 115.739 85.8896 117.404 86.8984 118.329L98.1797 128.712C98.604 129.101 99.132 129.312 99.6741 129.312C99.7802 129.312 99.8886 129.304 99.9971 129.289C100.648 129.185 101.232 128.786 101.609 128.181L116.257 104.583C116.999 103.383 116.735 101.737 115.667 100.902Z" fill="white"/>
</svg>
