<svg width="170" height="166" viewBox="0 0 170 166" fill="none" xmlns="http://www.w3.org/2000/svg">
<path d="M164.138 12.8793H5.86201C2.62438 12.8793 0 15.4419 0 18.6034V110.19H170V18.6034C170 15.4419 167.376 12.8793 164.138 12.8793ZM161.207 101.603H8.79318V21.4656H161.207V101.603Z" fill="#464655"/>
<path d="M67.4133 57.2415C68.2235 57.2415 68.8789 57.8815 68.8789 58.6726H73.2753V54.3796H67.4133C66.6031 54.3796 65.9477 53.7396 65.9477 52.9485C65.9477 52.1574 66.6031 51.5174 67.4133 51.5174H73.2753V32.914H46.8961V58.6726H65.9477C65.948 57.8815 66.6035 57.2415 67.4133 57.2415Z" fill="white"/>
<path d="M8.79318 101.603H161.207V21.4655H8.79318V101.603ZM73.2756 94.4482H67.4136C66.6035 94.4482 65.948 93.8082 65.948 93.0171C65.948 92.226 66.6035 91.586 67.4136 91.586H73.2756C74.0858 91.586 74.7412 92.226 74.7412 93.0171C74.7412 93.8082 74.0855 94.4482 73.2756 94.4482ZM67.4133 80.1378C68.2235 80.1378 68.8789 80.7778 68.8789 81.5689V87.293C68.8789 88.0841 68.2235 88.7241 67.4133 88.7241C66.6031 88.7241 65.9477 88.0841 65.9477 87.293V81.5689C65.948 80.7778 66.6035 80.1378 67.4133 80.1378ZM65.948 75.8448V70.1207C65.948 69.3296 66.6035 68.6896 67.4136 68.6896C68.2238 68.6896 68.8792 69.3296 68.8792 70.1207V75.8448C68.8792 76.6359 68.2238 77.2759 67.4136 77.2759C66.6035 77.2759 65.948 76.6359 65.948 75.8448ZM84.9997 94.4482H79.1376C78.3275 94.4482 77.6721 93.8082 77.6721 93.0171C77.6721 92.226 78.3275 91.586 79.1376 91.586H84.9997C85.8098 91.586 86.4652 92.226 86.4652 93.0171C86.4652 93.8082 85.8098 94.4482 84.9997 94.4482ZM109.913 87.293C109.913 88.0841 109.258 88.7241 108.448 88.7241C107.638 88.7241 106.982 88.0841 106.982 87.293V81.5689C106.982 80.7778 107.638 80.1378 108.448 80.1378C109.258 80.1378 109.913 80.7778 109.913 81.5689V87.293ZM109.913 75.8448C109.913 76.6359 109.258 77.2759 108.448 77.2759C107.638 77.2759 106.982 76.6359 106.982 75.8448V70.1207C106.982 69.3296 107.638 68.6896 108.448 68.6896C109.258 68.6896 109.913 69.3296 109.913 70.1207V75.8448ZM109.913 64.3967C109.913 65.1877 109.258 65.8278 108.448 65.8278C107.638 65.8278 106.982 65.1877 106.982 64.3967V58.6726C106.982 57.8815 107.638 57.2415 108.448 57.2415C109.258 57.2415 109.913 57.8815 109.913 58.6726V64.3967ZM123.104 67.2585V47.2241V30.0518C123.104 28.4713 124.416 27.1896 126.035 27.1896H152.414C154.033 27.1896 155.345 28.4713 155.345 30.0518V47.2244V67.2589V93.0174C155.345 94.598 154.033 95.8796 152.414 95.8796H126.035C124.416 95.8796 123.104 94.598 123.104 93.0174V67.2585ZM102.586 51.5174H108.448C109.258 51.5174 109.913 52.1574 109.913 52.9485C109.913 53.7396 109.258 54.3796 108.448 54.3796H102.586C101.776 54.3796 101.12 53.7396 101.12 52.9485C101.12 52.1574 101.776 51.5174 102.586 51.5174ZM102.586 91.5863H108.448C109.258 91.5863 109.913 92.2263 109.913 93.0174C109.913 93.8085 109.258 94.4485 108.448 94.4485H102.586C101.776 94.4485 101.12 93.8085 101.12 93.0174C101.12 92.2263 101.776 91.5863 102.586 91.5863ZM90.8617 51.5174H96.7237C97.5338 51.5174 98.1893 52.1574 98.1893 52.9485C98.1893 53.7396 97.5338 54.3796 96.7237 54.3796H90.8617C90.0515 54.3796 89.3961 53.7396 89.3961 52.9485C89.3961 52.1574 90.0515 51.5174 90.8617 51.5174ZM90.8617 91.5863H96.7237C97.5338 91.5863 98.1893 92.2263 98.1893 93.0174C98.1893 93.8085 97.5338 94.4485 96.7237 94.4485H90.8617C90.0515 94.4485 89.3961 93.8085 89.3961 93.0174C89.3961 92.2263 90.0515 91.5863 90.8617 91.5863ZM41.0341 30.0518C41.0341 28.47 42.3466 27.1896 43.9653 27.1896H76.2065C77.8251 27.1896 79.1376 28.4696 79.1376 30.0518V51.5174H84.9997C85.8098 51.5174 86.4652 52.1574 86.4652 52.9485C86.4652 53.7396 85.8098 54.3796 84.9997 54.3796H79.1376V61.5348C79.1376 61.8451 79.0855 62.1433 78.9922 62.4228L86.6837 69.1516C87.3209 69.709 87.1549 70.7231 86.3716 71.0593L83.457 72.3086L86.0602 78.0981C86.3852 78.8218 86.0472 79.6661 85.3071 79.9844C85.1155 80.0655 84.915 80.1047 84.7191 80.1047C84.1537 80.1047 83.6171 79.786 83.3754 79.2494L80.7719 73.4592L77.8563 74.7088C77.0731 75.0446 76.1959 74.4773 76.2071 73.6421L76.3303 64.3908C76.2888 64.3928 76.2483 64.397 76.2065 64.397H68.8789C68.8789 65.1881 68.2235 65.8281 67.4133 65.8281C66.6031 65.8281 65.9477 65.1881 65.9477 64.397H43.9649C42.3463 64.397 41.0337 63.117 41.0337 61.5348V30.0518H41.0341ZM14.6552 30.0518C14.6552 28.4713 15.9677 27.1896 17.5864 27.1896H26.3795C27.9982 27.1896 29.3107 28.4713 29.3107 30.0518V93.0174C29.3107 94.598 27.9982 95.8796 26.3795 95.8796H17.5864C15.9677 95.8796 14.6552 94.598 14.6552 93.0174V30.0518Z" fill="white"/>
<path d="M0 121.638C0 124.799 2.62438 127.362 5.86201 127.362H61.5516H108.448H164.138C167.375 127.362 170 124.799 170 121.638V110.19H0V121.638ZM85 114.483C87.4281 114.483 89.3964 116.405 89.3964 118.776C89.3964 121.146 87.4278 123.069 85 123.069C82.5719 123.069 80.6036 121.146 80.6036 118.776C80.6036 116.405 82.5719 114.483 85 114.483Z" fill="#BEC8DC"/>
<path d="M58.987 147.397H111.013L109.181 133.086H60.8188L58.987 147.397Z" fill="#AFBBD0"/>
<path d="M58.6208 147.397C57.0021 147.397 55.6896 148.678 55.6896 150.259C55.6896 151.839 57.0021 153.121 58.6208 153.121H111.38C112.998 153.121 114.311 151.839 114.311 150.259C114.311 148.678 112.998 147.397 111.38 147.397H111.013H58.9873H58.6208Z" fill="#BEC8DC"/>
<path d="M60.8188 133.086H109.181L108.448 127.362H61.5516L60.8188 133.086Z" fill="#96A5B9"/>
<path d="M85 123.069C87.4281 123.069 89.3964 121.147 89.3964 118.776C89.3964 116.405 87.4281 114.483 85 114.483C82.5719 114.483 80.6036 116.405 80.6036 118.776C80.6036 121.147 82.5719 123.069 85 123.069Z" fill="#96A5B9"/>
<path d="M17.5864 95.8793H26.3795C27.9982 95.8793 29.3107 94.5976 29.3107 93.0171V30.0518C29.3107 28.4713 27.9982 27.1896 26.3795 27.1896H17.5864C15.9677 27.1896 14.6552 28.4713 14.6552 30.0518V93.0174C14.6552 94.598 15.9674 95.8793 17.5864 95.8793ZM20.5172 32.9137H23.4484C25.067 32.9137 26.3795 34.1954 26.3795 35.7759C26.3795 37.3565 25.067 38.6381 23.4484 38.6381H20.5172C18.8985 38.6381 17.586 37.3565 17.586 35.7759C17.5864 34.1954 18.8985 32.9137 20.5172 32.9137ZM20.5172 41.5H23.4484C25.067 41.5 26.3795 42.7816 26.3795 44.3622C26.3795 45.9428 25.067 47.2244 23.4484 47.2244H20.5172C18.8985 47.2244 17.586 45.9428 17.586 44.3622C17.5864 42.7816 18.8985 41.5 20.5172 41.5ZM20.5172 50.0863H23.4484C25.067 50.0863 26.3795 51.3679 26.3795 52.9485C26.3795 54.5291 25.067 55.8107 23.4484 55.8107H20.5172C18.8985 55.8107 17.586 54.5291 17.586 52.9485C17.586 51.3679 18.8985 50.0863 20.5172 50.0863ZM20.5172 58.6726H23.4484C25.067 58.6726 26.3795 59.9542 26.3795 61.5348C26.3795 63.1153 25.067 64.397 23.4484 64.397H20.5172C18.8985 64.397 17.586 63.1153 17.586 61.5348C17.586 59.9542 18.8985 58.6726 20.5172 58.6726ZM20.5172 67.2585H23.4484C25.067 67.2585 26.3795 68.5402 26.3795 70.1207C26.3795 71.7013 25.067 72.9829 23.4484 72.9829H20.5172C18.8985 72.9829 17.586 71.7013 17.586 70.1207C17.586 68.5402 18.8985 67.2585 20.5172 67.2585ZM17.5864 81.5689C17.5864 79.9883 18.8989 78.7067 20.5175 78.7067H23.4487C25.0674 78.7067 26.3799 79.9883 26.3799 81.5689V87.293C26.3799 88.8736 25.0674 90.1552 23.4487 90.1552H20.5175C18.8989 90.1552 17.5864 88.8736 17.5864 87.293V81.5689Z" fill="#BEC8DC"/>
<path d="M20.5172 38.6378H23.4484C25.067 38.6378 26.3795 37.3562 26.3795 35.7756C26.3795 34.195 25.067 32.9134 23.4484 32.9134H20.5172C18.8985 32.9134 17.586 34.195 17.586 35.7756C17.5864 37.3565 18.8985 38.6378 20.5172 38.6378Z" fill="#E4EAF6"/>
<path d="M20.5172 47.2241H23.4484C25.067 47.2241 26.3795 45.9424 26.3795 44.3619C26.3795 42.7813 25.067 41.4997 23.4484 41.4997H20.5172C18.8985 41.4997 17.586 42.7813 17.586 44.3619C17.5864 45.9428 18.8985 47.2241 20.5172 47.2241Z" fill="#96A5B9"/>
<path d="M20.5172 55.8104H23.4484C25.067 55.8104 26.3795 54.5287 26.3795 52.9482C26.3795 51.3676 25.067 50.086 23.4484 50.086H20.5172C18.8985 50.086 17.586 51.3676 17.586 52.9482C17.586 54.5287 18.8985 55.8104 20.5172 55.8104Z" fill="#E4EAF6"/>
<path d="M20.5172 64.3967H23.4484C25.067 64.3967 26.3795 63.115 26.3795 61.5344C26.3795 59.9539 25.067 58.6722 23.4484 58.6722H20.5172C18.8985 58.6722 17.586 59.9539 17.586 61.5344C17.586 63.115 18.8985 64.3967 20.5172 64.3967Z" fill="#E4EAF6"/>
<path d="M20.5172 72.9826H23.4484C25.067 72.9826 26.3795 71.701 26.3795 70.1204C26.3795 68.5398 25.067 67.2582 23.4484 67.2582H20.5172C18.8985 67.2582 17.586 68.5398 17.586 70.1204C17.586 71.701 18.8985 72.9826 20.5172 72.9826Z" fill="#E4EAF6"/>
<path d="M20.5172 90.1552H23.4484C25.067 90.1552 26.3795 88.8736 26.3795 87.293V81.5689C26.3795 79.9883 25.067 78.7067 23.4484 78.7067H20.5172C18.8985 78.7067 17.586 79.9883 17.586 81.5689V87.293C17.5864 88.8736 18.8982 90.1552 20.5172 90.1552Z" fill="#96A5B9"/>
<path d="M155.345 30.0518C155.345 28.4713 154.032 27.1896 152.414 27.1896H126.034C124.416 27.1896 123.103 28.4713 123.103 30.0518V47.2244H155.344V30.0518H155.345ZM150.948 44.3622H139.224H136.293H127.5C126.691 44.3622 126.034 43.7215 126.034 42.9311C126.034 42.1407 126.691 41.5 127.5 41.5H136.293H139.224H150.948C151.758 41.5 152.414 42.1407 152.414 42.9311C152.414 43.7215 151.758 44.3622 150.948 44.3622ZM150.948 38.6378H148.017H145.086H127.5C126.691 38.6378 126.034 37.9971 126.034 37.2067C126.034 36.4163 126.691 35.7756 127.5 35.7756H145.086H148.018H150.949C151.758 35.7756 152.414 36.4163 152.414 37.2067C152.414 37.9971 151.758 38.6378 150.948 38.6378ZM150.948 32.9137H133.362H130.431H127.5C126.691 32.9137 126.034 32.2731 126.034 31.4826C126.034 30.6922 126.691 30.0515 127.5 30.0515H130.431H133.362H150.949C151.758 30.0515 152.414 30.6922 152.414 31.4826C152.414 32.2731 151.758 32.9137 150.948 32.9137Z" fill="#BEC8DC"/>
<path d="M126.034 95.8793H152.414C154.032 95.8793 155.345 94.5976 155.345 93.0171V67.2585H123.104V93.0171C123.104 94.5979 124.416 95.8793 126.034 95.8793ZM139.224 70.1207H150.948C151.758 70.1207 152.414 70.7614 152.414 71.5518C152.414 72.3423 151.758 72.9829 150.948 72.9829H139.224C138.415 72.9829 137.758 72.3423 137.758 71.5518C137.758 70.7614 138.415 70.1207 139.224 70.1207ZM139.224 75.8448H150.948C151.758 75.8448 152.414 76.4855 152.414 77.2759C152.414 78.0664 151.758 78.707 150.948 78.707H139.224C138.415 78.707 137.758 78.0664 137.758 77.2759C137.759 76.4855 138.415 75.8448 139.224 75.8448ZM139.224 81.5689H150.948C151.758 81.5689 152.414 82.2096 152.414 83C152.414 83.7904 151.758 84.4311 150.948 84.4311H139.224C138.415 84.4311 137.758 83.7904 137.758 83C137.759 82.2096 138.415 81.5689 139.224 81.5689ZM139.224 87.293H150.948C151.758 87.293 152.414 87.9336 152.414 88.7241C152.414 89.5145 151.758 90.1552 150.948 90.1552H139.224C138.415 90.1552 137.758 89.5145 137.758 88.7241C137.759 87.934 138.415 87.293 139.224 87.293ZM133.362 70.1207C134.172 70.1207 134.828 70.7614 134.828 71.5518C134.828 72.3423 134.172 72.9829 133.362 72.9829C132.553 72.9829 131.896 72.3423 131.896 71.5518C131.896 70.7614 132.553 70.1207 133.362 70.1207ZM133.362 75.8448C134.172 75.8448 134.828 76.4855 134.828 77.2759C134.828 78.0664 134.172 78.707 133.362 78.707C132.553 78.707 131.896 78.0664 131.896 77.2759C131.896 76.4855 132.553 75.8448 133.362 75.8448ZM133.362 81.5689C134.172 81.5689 134.828 82.2096 134.828 83C134.828 83.7904 134.172 84.4311 133.362 84.4311C132.553 84.4311 131.896 83.7904 131.896 83C131.896 82.2096 132.553 81.5689 133.362 81.5689ZM133.362 87.293C134.172 87.293 134.828 87.9336 134.828 88.7241C134.828 89.5145 134.172 90.1552 133.362 90.1552C132.553 90.1552 131.896 89.5145 131.896 88.7241C131.896 87.934 132.553 87.293 133.362 87.293ZM127.5 70.1207C128.31 70.1207 128.966 70.7614 128.966 71.5518C128.966 72.3423 128.31 72.9829 127.5 72.9829C126.691 72.9829 126.034 72.3423 126.034 71.5518C126.034 70.7614 126.691 70.1207 127.5 70.1207ZM127.5 75.8448C128.31 75.8448 128.966 76.4855 128.966 77.2759C128.966 78.0664 128.31 78.707 127.5 78.707C126.691 78.707 126.034 78.0664 126.034 77.2759C126.034 76.4855 126.691 75.8448 127.5 75.8448ZM127.5 81.5689C128.31 81.5689 128.966 82.2096 128.966 83C128.966 83.7904 128.31 84.4311 127.5 84.4311C126.691 84.4311 126.034 83.7904 126.034 83C126.034 82.2096 126.691 81.5689 127.5 81.5689ZM127.5 87.293C128.31 87.293 128.966 87.9336 128.966 88.7241C128.966 89.5145 128.31 90.1552 127.5 90.1552C126.691 90.1552 126.034 89.5145 126.034 88.7241C126.034 87.934 126.691 87.293 127.5 87.293Z" fill="#BEC8DC"/>
<path d="M155.345 47.2241H123.104V67.2585H155.345V47.2241ZM130.431 64.3966H127.5C126.691 64.3966 126.034 63.756 126.034 62.9655C126.034 62.1751 126.691 61.5344 127.5 61.5344H130.431C131.241 61.5344 131.897 62.1751 131.897 62.9655C131.897 63.756 131.24 64.3966 130.431 64.3966ZM130.431 58.6726H127.5C126.691 58.6726 126.034 58.0319 126.034 57.2415C126.034 56.451 126.691 55.8104 127.5 55.8104H130.431C131.241 55.8104 131.897 56.451 131.897 57.2415C131.897 58.0319 131.24 58.6726 130.431 58.6726ZM130.431 52.9482H127.5C126.691 52.9482 126.034 52.3075 126.034 51.5171C126.034 50.7266 126.691 50.086 127.5 50.086H130.431C131.241 50.086 131.897 50.7266 131.897 51.5171C131.897 52.3075 131.24 52.9482 130.431 52.9482ZM150.948 64.3966H136.293C135.484 64.3966 134.828 63.756 134.828 62.9655C134.828 62.1751 135.484 61.5344 136.293 61.5344H150.948C151.758 61.5344 152.414 62.1751 152.414 62.9655C152.414 63.756 151.758 64.3966 150.948 64.3966ZM150.948 58.6726H136.293C135.484 58.6726 134.828 58.0319 134.828 57.2415C134.828 56.451 135.484 55.8104 136.293 55.8104H150.948C151.758 55.8104 152.414 56.451 152.414 57.2415C152.414 58.0319 151.758 58.6726 150.948 58.6726ZM150.948 52.9482H136.293C135.484 52.9482 134.828 52.3075 134.828 51.5171C134.828 50.7266 135.484 50.086 136.293 50.086H150.948C151.758 50.086 152.414 50.7266 152.414 51.5171C152.414 52.3075 151.758 52.9482 150.948 52.9482Z" fill="#96A5B9"/>
<path d="M150.948 30.0518H133.362C134.171 30.0518 134.828 30.6925 134.828 31.4829C134.828 32.2734 134.171 32.914 133.362 32.914H150.948C151.758 32.914 152.414 32.2734 152.414 31.4829C152.414 30.6925 151.758 30.0518 150.948 30.0518Z" fill="#96A5B9"/>
<path d="M128.966 31.4826C128.966 30.6922 129.622 30.0515 130.431 30.0515H127.5C126.691 30.0515 126.034 30.6922 126.034 31.4826C126.034 32.2731 126.691 32.9137 127.5 32.9137H130.431C129.622 32.9137 128.966 32.2731 128.966 31.4826Z" fill="#96A5B9"/>
<path d="M150.948 41.5H139.224C140.034 41.5 140.69 42.1407 140.69 42.9311C140.69 43.7215 140.034 44.3622 139.224 44.3622H150.948C151.758 44.3622 152.414 43.7215 152.414 42.9311C152.414 42.1407 151.758 41.5 150.948 41.5Z" fill="#96A5B9"/>
<path d="M134.828 42.9311C134.828 42.1407 135.484 41.5 136.293 41.5H127.5C126.691 41.5 126.034 42.1407 126.034 42.9311C126.034 43.7215 126.691 44.3622 127.5 44.3622H136.293C135.484 44.3622 134.828 43.7212 134.828 42.9311Z" fill="#96A5B9"/>
<path d="M150.948 50.0863H136.293C135.484 50.0863 134.828 50.7269 134.828 51.5174C134.828 52.3078 135.484 52.9485 136.293 52.9485H150.948C151.758 52.9485 152.414 52.3078 152.414 51.5174C152.414 50.7269 151.758 50.0863 150.948 50.0863Z" fill="#BEC8DC"/>
<path d="M143.621 37.207C143.621 36.4166 144.277 35.7759 145.086 35.7759H127.5C126.691 35.7759 126.034 36.4166 126.034 37.207C126.034 37.9975 126.691 38.6381 127.5 38.6381H145.086C144.277 38.6378 143.621 37.9971 143.621 37.207Z" fill="#96A5B9"/>
<path d="M150.948 35.7759H148.017C148.827 35.7759 149.483 36.4166 149.483 37.207C149.483 37.9975 148.827 38.6381 148.017 38.6381H150.948C151.758 38.6381 152.414 37.9975 152.414 37.207C152.414 36.4166 151.758 35.7759 150.948 35.7759Z" fill="#96A5B9"/>
<path d="M134.828 31.4826C134.828 30.6922 134.172 30.0515 133.362 30.0515H130.431C129.621 30.0515 128.965 30.6922 128.965 31.4826C128.965 32.2731 129.621 32.9137 130.431 32.9137H133.362C134.172 32.9137 134.828 32.2731 134.828 31.4826Z" fill="#E4EAF6"/>
<path d="M140.69 42.9311C140.69 42.1407 140.034 41.5 139.224 41.5H136.293C135.483 41.5 134.827 42.1407 134.827 42.9311C134.827 43.7215 135.483 44.3622 136.293 44.3622H139.224C140.034 44.3622 140.69 43.7212 140.69 42.9311Z" fill="#E4EAF6"/>
<path d="M130.431 50.0863H127.5C126.691 50.0863 126.034 50.7269 126.034 51.5174C126.034 52.3078 126.691 52.9485 127.5 52.9485H130.431C131.241 52.9485 131.897 52.3078 131.897 51.5174C131.897 50.7269 131.24 50.0863 130.431 50.0863Z" fill="#E4EAF6"/>
<path d="M150.948 55.8104H136.293C135.484 55.8104 134.828 56.451 134.828 57.2415C134.828 58.0319 135.484 58.6726 136.293 58.6726H150.948C151.758 58.6726 152.414 58.0319 152.414 57.2415C152.414 56.451 151.758 55.8104 150.948 55.8104Z" fill="#BEC8DC"/>
<path d="M130.431 55.8104H127.5C126.691 55.8104 126.034 56.451 126.034 57.2415C126.034 58.0319 126.691 58.6726 127.5 58.6726H130.431C131.241 58.6726 131.897 58.0319 131.897 57.2415C131.897 56.451 131.24 55.8104 130.431 55.8104Z" fill="#E4EAF6"/>
<path d="M150.948 61.5345H136.293C135.484 61.5345 134.828 62.1751 134.828 62.9656C134.828 63.756 135.484 64.3967 136.293 64.3967H150.948C151.758 64.3967 152.414 63.756 152.414 62.9656C152.414 62.1751 151.758 61.5345 150.948 61.5345Z" fill="#BEC8DC"/>
<path d="M130.431 61.5345H127.5C126.691 61.5345 126.034 62.1751 126.034 62.9656C126.034 63.756 126.691 64.3967 127.5 64.3967H130.431C131.241 64.3967 131.897 63.756 131.897 62.9656C131.897 62.1751 131.24 61.5345 130.431 61.5345Z" fill="#E4EAF6"/>
<path d="M127.5 78.707C128.31 78.707 128.966 78.0664 128.966 77.2759C128.966 76.4855 128.31 75.8448 127.5 75.8448C126.691 75.8448 126.034 76.4855 126.034 77.2759C126.034 78.066 126.691 78.707 127.5 78.707Z" fill="#E4EAF6"/>
<path d="M127.5 72.9826C128.31 72.9826 128.966 72.342 128.966 71.5515C128.966 70.7611 128.31 70.1204 127.5 70.1204C126.691 70.1204 126.034 70.7611 126.034 71.5515C126.034 72.342 126.691 72.9826 127.5 72.9826Z" fill="#E4EAF6"/>
<path d="M127.5 90.1552C128.31 90.1552 128.966 89.5145 128.966 88.7241C128.966 87.9336 128.31 87.293 127.5 87.293C126.691 87.293 126.034 87.9336 126.034 88.7241C126.034 89.5145 126.691 90.1552 127.5 90.1552Z" fill="#E4EAF6"/>
<path d="M127.5 84.4311C128.31 84.4311 128.966 83.7905 128.966 83C128.966 82.2096 128.31 81.5689 127.5 81.5689C126.691 81.5689 126.034 82.2096 126.034 83C126.034 83.7905 126.691 84.4311 127.5 84.4311Z" fill="#E4EAF6"/>
<path d="M133.362 78.707C134.172 78.707 134.828 78.0664 134.828 77.2759C134.828 76.4855 134.172 75.8448 133.362 75.8448C132.553 75.8448 131.896 76.4855 131.896 77.2759C131.896 78.066 132.553 78.707 133.362 78.707Z" fill="#96A5B9"/>
<path d="M133.362 72.9826C134.172 72.9826 134.828 72.342 134.828 71.5515C134.828 70.7611 134.172 70.1204 133.362 70.1204C132.553 70.1204 131.896 70.7611 131.896 71.5515C131.896 72.342 132.553 72.9826 133.362 72.9826Z" fill="#96A5B9"/>
<path d="M133.362 90.1552C134.172 90.1552 134.828 89.5145 134.828 88.7241C134.828 87.9336 134.172 87.293 133.362 87.293C132.553 87.293 131.896 87.9336 131.896 88.7241C131.896 89.5145 132.553 90.1552 133.362 90.1552Z" fill="#96A5B9"/>
<path d="M133.362 84.4311C134.172 84.4311 134.828 83.7905 134.828 83C134.828 82.2096 134.172 81.5689 133.362 81.5689C132.553 81.5689 131.896 82.2096 131.896 83C131.896 83.7905 132.553 84.4311 133.362 84.4311Z" fill="#96A5B9"/>
<path d="M139.224 78.707H150.948C151.758 78.707 152.414 78.0664 152.414 77.2759C152.414 76.4855 151.758 75.8448 150.948 75.8448H139.224C138.415 75.8448 137.758 76.4855 137.758 77.2759C137.759 78.066 138.415 78.707 139.224 78.707Z" fill="#96A5B9"/>
<path d="M139.224 72.9826H150.948C151.758 72.9826 152.414 72.342 152.414 71.5515C152.414 70.7611 151.758 70.1204 150.948 70.1204H139.224C138.415 70.1204 137.758 70.7611 137.758 71.5515C137.758 72.342 138.415 72.9826 139.224 72.9826Z" fill="#96A5B9"/>
<path d="M139.224 90.1552H150.948C151.758 90.1552 152.414 89.5145 152.414 88.7241C152.414 87.9336 151.758 87.293 150.948 87.293H139.224C138.415 87.293 137.758 87.9336 137.758 88.7241C137.759 89.5145 138.415 90.1552 139.224 90.1552Z" fill="#96A5B9"/>
<path d="M139.224 84.4311H150.948C151.758 84.4311 152.414 83.7905 152.414 83C152.414 82.2096 151.758 81.5689 150.948 81.5689H139.224C138.415 81.5689 137.758 82.2096 137.758 83C137.759 83.7905 138.415 84.4311 139.224 84.4311Z" fill="#96A5B9"/>
<path d="M149.483 37.207C149.483 36.4166 148.827 35.7759 148.017 35.7759H145.086C144.277 35.7759 143.62 36.4166 143.62 37.207C143.62 37.9975 144.277 38.6381 145.086 38.6381H148.017C148.827 38.6378 149.483 37.9971 149.483 37.207Z" fill="#E4EAF6"/>
<path d="M43.9653 64.3967H65.9481V58.6726H46.8961V32.914H73.2753V51.5174C74.0855 51.5174 74.7409 52.1574 74.7409 52.9485C74.7409 53.7396 74.0855 54.3796 73.2753 54.3796V58.6726H68.8789V64.3967H76.2065C76.2483 64.3967 76.2888 64.3924 76.3303 64.3905L76.3536 62.6705C76.3669 61.6842 77.5625 61.172 78.3149 61.8298L78.9926 62.4225C79.0859 62.1427 79.138 61.8447 79.138 61.5345V54.3793C78.3278 54.3793 77.6724 53.7393 77.6724 52.9482C77.6724 52.1571 78.3278 51.5171 79.138 51.5171V30.0518C79.138 28.47 77.8255 27.1896 76.2068 27.1896H43.9656C42.3469 27.1896 41.0344 28.4697 41.0344 30.0518V61.5345C41.0341 63.1166 42.3466 64.3967 43.9653 64.3967Z" fill="#FF6469"/>
<path d="M67.4133 77.2759C68.2234 77.2759 68.8789 76.6359 68.8789 75.8448V70.1207C68.8789 69.3296 68.2234 68.6896 67.4133 68.6896C66.6031 68.6896 65.9477 69.3296 65.9477 70.1207V75.8448C65.948 76.6359 66.6035 77.2759 67.4133 77.2759Z" fill="#96A5B9"/>
<path d="M102.586 94.4482H108.448C109.258 94.4482 109.913 93.8082 109.913 93.0171C109.913 92.226 109.258 91.586 108.448 91.586H102.586C101.776 91.586 101.12 92.226 101.12 93.0171C101.12 93.8082 101.776 94.4482 102.586 94.4482Z" fill="#96A5B9"/>
<path d="M108.448 80.1378C107.638 80.1378 106.982 80.7778 106.982 81.5689V87.293C106.982 88.0841 107.638 88.7241 108.448 88.7241C109.258 88.7241 109.914 88.0841 109.914 87.293V81.5689C109.913 80.7778 109.258 80.1378 108.448 80.1378Z" fill="#96A5B9"/>
<path d="M102.586 54.3793H108.448C109.258 54.3793 109.913 53.7393 109.913 52.9482C109.913 52.1571 109.258 51.5171 108.448 51.5171H102.586C101.776 51.5171 101.12 52.1571 101.12 52.9482C101.12 53.7393 101.776 54.3793 102.586 54.3793Z" fill="#96A5B9"/>
<path d="M108.448 57.2415C107.638 57.2415 106.982 57.8815 106.982 58.6726V64.3966C106.982 65.1877 107.638 65.8277 108.448 65.8277C109.258 65.8277 109.914 65.1877 109.914 64.3966V58.6726C109.913 57.8815 109.258 57.2415 108.448 57.2415Z" fill="#96A5B9"/>
<path d="M84.9996 91.5863H79.1376C78.3275 91.5863 77.6721 92.2263 77.6721 93.0174C77.6721 93.8085 78.3275 94.4485 79.1376 94.4485H84.9996C85.8098 94.4485 86.4652 93.8085 86.4652 93.0174C86.4652 92.2263 85.8098 91.5863 84.9996 91.5863Z" fill="#96A5B9"/>
<path d="M67.4133 57.2415C66.6031 57.2415 65.9477 57.8815 65.9477 58.6726V64.3966C65.9477 65.1877 66.6031 65.8277 67.4133 65.8277C68.2234 65.8277 68.8789 65.1877 68.8789 64.3966V58.6726C68.8789 57.8815 68.2234 57.2415 67.4133 57.2415Z" fill="#96A5B9"/>
<path d="M73.2757 91.5863H67.4136C66.6035 91.5863 65.9481 92.2263 65.9481 93.0174C65.9481 93.8085 66.6035 94.4485 67.4136 94.4485H73.2757C74.0858 94.4485 74.7412 93.8085 74.7412 93.0174C74.7412 92.2263 74.0855 91.5863 73.2757 91.5863Z" fill="#96A5B9"/>
<path d="M65.9481 87.293C65.9481 88.0841 66.6035 88.7241 67.4136 88.7241C68.2238 88.7241 68.8792 88.0841 68.8792 87.293V81.5689C68.8792 80.7778 68.2238 80.1378 67.4136 80.1378C66.6035 80.1378 65.9481 80.7778 65.9481 81.5689V87.293Z" fill="#96A5B9"/>
<path d="M108.448 68.6896C107.638 68.6896 106.982 69.3296 106.982 70.1207V75.8448C106.982 76.6359 107.638 77.2759 108.448 77.2759C109.258 77.2759 109.914 76.6359 109.914 75.8448V70.1207C109.913 69.3296 109.258 68.6896 108.448 68.6896Z" fill="#96A5B9"/>
<path d="M90.8617 54.3793H96.7237C97.5338 54.3793 98.1893 53.7393 98.1893 52.9482C98.1893 52.1571 97.5338 51.5171 96.7237 51.5171H90.8617C90.0515 51.5171 89.3961 52.1571 89.3961 52.9482C89.3961 53.7393 90.0515 54.3793 90.8617 54.3793Z" fill="#96A5B9"/>
<path d="M65.9487 52.9482C65.9487 53.7393 66.6041 54.3793 67.4143 54.3793H73.2763C74.0864 54.3793 74.7419 53.7393 74.7419 52.9482C74.7419 52.1571 74.0864 51.5171 73.2763 51.5171H67.4143C66.6041 51.5174 65.9487 52.1574 65.9487 52.9482Z" fill="#96A5B9"/>
<path d="M90.8617 94.4482H96.7237C97.5338 94.4482 98.1893 93.8082 98.1893 93.0171C98.1893 92.226 97.5338 91.586 96.7237 91.586H90.8617C90.0515 91.586 89.3961 92.226 89.3961 93.0171C89.3961 93.8082 90.0515 94.4482 90.8617 94.4482Z" fill="#96A5B9"/>
<path d="M77.6721 52.9482C77.6721 53.7393 78.3275 54.3793 79.1376 54.3793H84.9996C85.8098 54.3793 86.4652 53.7393 86.4652 52.9482C86.4652 52.1571 85.8098 51.5171 84.9996 51.5171H79.1376C78.3275 51.5174 77.6721 52.1574 77.6721 52.9482Z" fill="#96A5B9"/>
<path d="M76.3533 62.6705L76.33 64.3905L76.2068 73.6418C76.1959 74.4773 77.0724 75.0446 77.856 74.7084L80.7716 73.4589L83.3751 79.2491C83.6168 79.7857 84.1537 80.1044 84.7188 80.1044C84.9147 80.1044 85.1152 80.0655 85.3068 79.9841C86.0469 79.6654 86.3843 78.8215 86.0599 78.0978L83.4567 72.3082L86.3713 71.059C87.1546 70.7231 87.3206 69.7093 86.6834 69.1513L78.9919 62.4225L78.3142 61.8298C77.5622 61.1717 76.3662 61.6842 76.3533 62.6705Z" fill="#464655"/>
</svg>
